<svg xmlns="http://www.w3.org/2000/svg" viewBox="0 0 1200 630" width="1200" height="630">
  <defs>
    <linearGradient id="sky" x1="0" y1="0" x2="0" y2="1">
      <stop offset="0%" stop-color="#87BBCD"/>
      <stop offset="100%" stop-color="#F4E8D1"/>
    </linearGradient>
  </defs>
  <rect width="1200" height="630" fill="url(#sky)"/>
  <!-- Buildings silhouette -->
  <rect x="50" y="200" width="180" height="430" rx="3" fill="#C4533A" opacity="0.85"/>
  <rect x="60" y="240" width="40" height="60" rx="2" fill="#2D5F7C" opacity="0.5"/>
  <rect x="120" y="240" width="40" height="60" rx="2" fill="#2D5F7C" opacity="0.5"/>
  <rect x="60" y="340" width="40" height="60" rx="2" fill="#2D5F7C" opacity="0.5"/>
  <rect x="120" y="340" width="40" height="60" rx="2" fill="#2D5F7C" opacity="0.5"/>
  <rect x="270" y="260" width="200" height="370" rx="3" fill="#E8A838" opacity="0.7"/>
  <rect x="290" y="300" width="35" height="50" rx="2" fill="#5C3D2E" opacity="0.4"/>
  <rect x="345" y="300" width="35" height="50" rx="2" fill="#5C3D2E" opacity="0.4"/>
  <rect x="400" y="300" width="35" height="50" rx="2" fill="#5C3D2E" opacity="0.4"/>
  <rect x="510" y="180" width="160" height="450" rx="3" fill="#F4E8D1" opacity="0.9"/>
  <rect x="530" y="220" width="50" height="70" rx="25" fill="#2D5F7C" opacity="0.4"/>
  <rect x="600" y="220" width="50" height="70" rx="25" fill="#2D5F7C" opacity="0.4"/>
  <rect x="710" y="230" width="190" height="400" rx="3" fill="#8B5E3C" opacity="0.75"/>
  <rect x="730" y="270" width="45" height="55" rx="2" fill="#F4E8D1" opacity="0.3"/>
  <rect x="800" y="270" width="45" height="55" rx="2" fill="#F4E8D1" opacity="0.3"/>
  <rect x="940" y="200" width="210" height="430" rx="3" fill="#C4533A" opacity="0.7"/>
  <rect x="960" y="240" width="40" height="60" rx="20" fill="#3A6B4A" opacity="0.4"/>
  <rect x="1020" y="240" width="40" height="60" rx="20" fill="#3A6B4A" opacity="0.4"/>
  <!-- Street -->
  <rect x="0" y="560" width="1200" height="70" fill="#5A534E" opacity="0.5"/>
  <!-- Scaffolding hint -->
  <rect x="100" y="180" width="4" height="380" fill="#8C847D" opacity="0.6"/>
  <rect x="180" y="180" width="4" height="380" fill="#8C847D" opacity="0.6"/>
  <rect x="96" y="250" width="92" height="3" fill="#8C847D" opacity="0.6"/>
  <rect x="96" y="350" width="92" height="3" fill="#8C847D" opacity="0.6"/>
</svg>
