<svg xmlns="http://www.w3.org/2000/svg" viewBox="0 0 32 32">
  <rect width="32" height="32" rx="6" fill="#5C3D2E"/>
  <path d="M8 12c0-3 2.5-5 8-5s8 2 8 5c0 2-1 3-2 3.5.5.5 1 1.5 1 3 0 2.5-2 4.5-7 4.5s-7-2-7-4.5c0-1.5.5-2.5 1-3C9 15 8 14 8 12z" fill="#F4E8D1"/>
  <ellipse cx="16" cy="11.5" rx="5.5" ry="3" fill="#8B5E3C"/>
  <path d="M22 10c1-1 3-1 3.5.5s-.5 3-1.5 3" stroke="#F4E8D1" stroke-width="1.5" fill="none" stroke-linecap="round"/>
  <path d="M13 8c-.5-2 0-4 1.5-4.5" stroke="#C5BDB5" stroke-width="1" fill="none" stroke-linecap="round" opacity="0.6"/>
  <path d="M16 7c-.3-2.5.5-4 2-4.5" stroke="#C5BDB5" stroke-width="1" fill="none" stroke-linecap="round" opacity="0.6"/>
</svg>
